<svg viewBox="0 0 24 24" xmlns="http://www.w3.org/2000/svg"><g fill="none" fill-rule="evenodd"><path d="M2 2h20v20H2z"/><path d="M22 12c0 5.523-4.477 10-10 10S2 17.523 2 12 6.477 2 12 2s10 4.477 10 10" fill="#FFCC4D" fill-rule="nonzero"/><path d="M2.689 8.121c.133.133.799.532.932.93.133.399.4 2.658 1.198 3.323.824.685 3.932.43 4.527.134 1.332-.664 1.495-2.517 1.73-3.456.133-.532.932-.532.932-.532s.8 0 .933.531c.235.94.4 2.793 1.73 3.456.596.297 3.703.552 4.528-.132.798-.665 1.064-2.924 1.198-3.323.132-.399.799-.798.931-.93.134-.133.134-.665 0-.798-.266-.266-3.407-.502-6.79-.133-.675.074-.932.266-2.53.266-1.597 0-1.855-.193-2.53-.266-3.38-.37-6.522-.133-6.79.132-.132.133-.132.665 0 .798z" fill="#292F33"/><path d="M17.186 15.127a.278.278 0 0 0-.353-.016c-.021.016-2.179 1.611-4.833 1.611-2.648 0-4.812-1.595-4.833-1.61a.278.278 0 0 0-.405.364c.071.12 1.787 2.913 5.238 2.913 3.451 0 5.167-2.793 5.238-2.913a.277.277 0 0 0-.052-.349z" fill="#664500" fill-rule="nonzero"/></g></svg>