<svg viewBox="0 0 24 24" xmlns="http://www.w3.org/2000/svg"><g fill="none" fill-rule="evenodd"><path d="M2 2h20v20H2z"/><path d="M22 12c0 5.523-4.477 10-10 10-5.522 0-10-4.477-10-10C2 6.478 6.478 2 12 2c5.523 0 10 4.478 10 10" fill="#FFCC4D" fill-rule="nonzero"/><path d="M10.889 12a.556.556 0 0 1-.527-.38c-.113-.333-.565-1.287-1.14-1.287-.59 0-1.049 1.015-1.14 1.287a.556.556 0 1 1-1.053-.352c.07-.209.724-2.046 2.193-2.046 1.47 0 2.124 1.837 2.194 2.047a.556.556 0 0 1-.527.731zm5.555 0a.555.555 0 0 1-.526-.38c-.113-.333-.566-1.287-1.14-1.287-.59 0-1.05 1.015-1.14 1.287a.556.556 0 0 1-1.054-.352c.07-.209.724-2.046 2.194-2.046s2.124 1.837 2.193 2.047a.556.556 0 0 1-.527.731zM12 14.222c-2.013 0-3.348-.234-5-.555-.377-.073-1.111 0-1.111 1.11 0 2.223 2.553 5 6.111 5s6.111-2.777 6.111-5c0-1.11-.734-1.184-1.111-1.11-1.652.32-2.987.555-5 .555z" fill="#664500" fill-rule="nonzero"/><path d="M7 14.778s1.667.555 5 .555 5-.555 5-.555-.747 3.75-5 3.75-5-3.75-5-3.75z" fill="#FFF" fill-rule="nonzero"/><path d="M12 17.854c-1.998 0-3.484-.28-4.41-.56l-.458-1.41c.457.236 2.16.676 4.869.676 2.752 0 4.465-.464 4.924-.706l-.39 1.386c-.907.286-2.454.614-4.535.614z" fill="#664500" fill-rule="nonzero"/></g></svg>